<?xml version="1.0" encoding="UTF-8" standalone="no"?>
<svg
   xmlns:osb="http://www.openswatchbook.org/uri/2009/osb"
   xmlns:dc="http://purl.org/dc/elements/1.1/"
   xmlns:cc="http://creativecommons.org/ns#"
   xmlns:rdf="http://www.w3.org/1999/02/22-rdf-syntax-ns#"
   xmlns:svg="http://www.w3.org/2000/svg"
   xmlns="http://www.w3.org/2000/svg"
   xmlns:xlink="http://www.w3.org/1999/xlink"
   id="svg5766"
   version="1.1"
   viewBox="0 0 13.229168 13.229167"
   height="13.229167mm"
   width="13.229168mm">
  <defs
     id="defs5760">
    <linearGradient
       gradientTransform="matrix(0.2020218,0,0,0.19881428,101.6043,75.534931)"
       gradientUnits="userSpaceOnUse"
       y2="134.83112"
       x2="163.07364"
       y1="134.83112"
       x1="110.88502"
       id="linearGradient5313"
       xlink:href="#linearGradient4526" />
    <linearGradient
       osb:paint="solid"
       id="linearGradient4526">
      <stop
         id="stop4524"
         offset="0"
         style="stop-color:#000000;stop-opacity:1;" />
    </linearGradient>
    <linearGradient
       gradientTransform="matrix(0.2020218,0,0,0.19881428,101.6043,75.534931)"
       gradientUnits="userSpaceOnUse"
       y2="153.43127"
       x2="156.14977"
       y1="153.43127"
       x1="131.11746"
       id="linearGradient5339"
       xlink:href="#linearGradient4526" />
    <linearGradient
       gradientTransform="matrix(0.2020218,0,0,0.19881428,101.6043,75.534931)"
       gradientUnits="userSpaceOnUse"
       y2="166.62553"
       x2="143.11047"
       y1="166.62553"
       x1="137.71135"
       id="linearGradient5337"
       xlink:href="#linearGradient4526" />
  </defs>
  <metadata
     id="metadata5763">
    <rdf:RDF>
      <cc:Work
         rdf:about="">
        <dc:format>image/svg+xml</dc:format>
        <dc:type
           rdf:resource="http://purl.org/dc/dcmitype/StillImage" />
        <dc:title></dc:title>
      </cc:Work>
    </rdf:RDF>
  </metadata>
  <g
     transform="translate(-123.40923,-99.885414)"
     id="layer1">
    <path
       id="path5303"
       d="m 128.19389,104.33644 v 0.69282 l 3.42976,-0.0533 c -0.11838,0.59107 -0.39431,0.99837 -0.75816,1.45671 l -0.0541,1.17247 c 1.06544,-0.99213 1.63337,-2.01617 2.18421,-3.25095 z"
       style="fill:#F5F6F7;fill-opacity:1;fill-rule:evenodd;stroke:none;stroke-width:0.20041163px;stroke-linecap:butt;stroke-linejoin:miter;stroke-opacity:1" />
    <path
       id="path5305"
       d="m 129.52969,105.27797 0.84841,-0.0178 -0.037,6.795 -0.75015,0.009 z"
       style="fill:#F5F6F7;fill-opacity:1;fill-rule:evenodd;stroke:none;stroke-width:0.20041163px;stroke-linecap:butt;stroke-linejoin:miter;stroke-opacity:1" />
    <path
       id="path5307"
       d="m 128.70272,103.57232 -1.71746,0.4139 1.64088,-0.61489 -0.0511,-0.2261 -2.98576,0.23383 2.96023,-0.42226 v -0.1633 l -4.23719,-0.015 4.24357,-0.16088 0.0447,-0.18843 -2.76492,-0.25732 2.83513,0.0752 0.10211,-0.14445 -1.56361,-0.45222 1.7104,0.30148 1.35301,-1.41946 1.09772,1.29384 1.51894,-0.26379 -1.30195,0.36428 0.24253,0.25123 2.1698,-0.20808 -2.06769,0.34626 0.11488,0.25123 2.28879,0.0754 -2.26327,0.1005 -0.0255,0.20098 1.99122,0.41453 -2.05504,-0.25123 -0.0638,0.3266 1.5283,0.36923 -1.57935,-0.20593 c -0.14139,0.26244 -0.34752,0.36171 -0.59992,0.50246 0.68968,-0.79716 0.74901,-1.82779 -0.0511,-2.06009 l -0.95732,-1.18079 c -0.76919,0.81742 -1.80076,1.38949 -1.41682,2.47463 0.22721,0.47005 0.55145,0.6287 1.04666,0.60295 -0.34403,-0.47133 -0.007,-1.075 0.27443,-1.35665 0.21286,0.23259 0.41701,0.47572 0.51719,0.6977 0.089,0.1973 0.15935,0.4276 0.0763,0.63382 -0.17402,0.16528 -0.33458,0.19981 -0.56162,0.23867 l 0.33825,-0.27007 c 0.25895,-0.20675 -0.13242,-0.78853 -0.38402,-1.03614 -0.36,0.79162 -0.18076,0.96831 0.12873,0.97961 l -0.25528,0.2952 c -0.58798,0.0597 -1.10373,-0.18437 -1.3211,-0.54642 z"
       style="fill:#F5F6F7;fill-opacity:1;fill-rule:evenodd;stroke:none;stroke-width:0.20041163px;stroke-linecap:butt;stroke-linejoin:miter;stroke-opacity:1" />
  </g>
</svg>
