<?xml version="1.0" encoding="UTF-8" standalone="no"?>
<svg
   xmlns:osb="http://www.openswatchbook.org/uri/2009/osb"
   xmlns:dc="http://purl.org/dc/elements/1.1/"
   xmlns:cc="http://creativecommons.org/ns#"
   xmlns:rdf="http://www.w3.org/1999/02/22-rdf-syntax-ns#"
   xmlns:svg="http://www.w3.org/2000/svg"
   xmlns="http://www.w3.org/2000/svg"
   id="svg5152"
   version="1.1"
   viewBox="0 0 13.229167 13.229167"
   height="13.229167mm"
   width="13.229167mm">
  <defs
     id="defs5146">
    <linearGradient
       osb:paint="solid"
       id="linearGradient4526">
      <stop
         id="stop4524"
         offset="0"
         style="stop-color:#f5f6f7;stop-opacity:1;" />
    </linearGradient>
  </defs>
  <metadata
     id="metadata5149">
    <rdf:RDF>
      <cc:Work
         rdf:about="">
        <dc:format>image/svg+xml</dc:format>
        <dc:type
           rdf:resource="http://purl.org/dc/dcmitype/StillImage" />
        <dc:title></dc:title>
      </cc:Work>
    </rdf:RDF>
  </metadata>
  <g
     transform="translate(-106.02232,-80.230652)"
     id="layer1">
    <path
       id="path5275"
       d="m 112.6369,85.522507 c -1.5064,0 -3.00223,1.063307 -3.30884,2.704228 -0.11307,0.972406 0.25083,1.674096 0.75293,2.45463 l -1.96474,-0.05064 0.002,1.008724 h 3.82302 c 0,0 -1.22835,-1.325045 -1.49086,-2.20245 -0.4077,-1.829858 0.86676,-2.75022 2.18693,-2.75022 1.32017,0 2.59826,0.920362 2.19057,2.75022 -0.26252,0.877403 -1.49087,2.202448 -1.49087,2.202448 h 3.82303 l 0.002,-1.008724 -1.96474,0.05064 c 0.50209,-0.780532 0.86598,-1.482222 0.75291,-2.454628 -0.30665,-1.640921 -1.80609,-2.704228 -3.3125,-2.704228 z"
       style="fill:#F5F6F7;fill-opacity:1;fill-rule:evenodd;stroke:none;stroke-width:0.24932705px;stroke-linecap:butt;stroke-linejoin:miter;stroke-opacity:1" />
    <path
       id="path5277"
       d="m 111.75375,87.375107 0.64958,3.446302 0.23357,0.732255 0.23617,-0.732255 0.64957,-3.446302 -0.64286,1.421102 -0.24288,2.017965 -0.24029,-2.017965 z"
       style="fill:#F5F6F7;fill-opacity:1;fill-rule:evenodd;stroke:none;stroke-width:0.24932705px;stroke-linecap:butt;stroke-linejoin:miter;stroke-opacity:1" />
    <path
       id="path5279"
       d="m 111.57857,85.522321 0.13285,-0.722882 -0.0443,-0.941426 c 0,0 -2.36185,2.723414 -2.3028,2.504868 0.059,-0.218545 0.66285,-1.383492 1.01855,-2.017343 0.16852,-0.30031 0.56093,-0.857372 0.56093,-0.857372 0,0 -0.84872,0.09665 -1.25473,0.235357 -0.33545,0.114605 -1.25473,0.638826 -1.25473,0.638826 0,0 0.69267,-0.858033 0.98903,-1.244029 0.14284,-0.186048 0.51665,-0.739693 0.51665,-0.739693 0,0 -0.72117,0.747446 -1.06283,1.143162 -0.32234,0.373336 -1.04807,1.412141 -1.04807,1.412141 0.85204,-0.406284 1.70644,-1.02227 2.59908,-1.108695 0,0 -0.82694,1.413355 -1.12293,2.117367 -0.13929,0.331313 -0.39856,1.159972 -0.39856,1.159972 0.91247,-0.768714 1.71406,-1.684357 2.58327,-2.538491 z"
       style="fill:#F5F6F7;fill-opacity:1;fill-rule:evenodd;stroke:none;stroke-width:0.24932705px;stroke-linecap:butt;stroke-linejoin:miter;stroke-opacity:1" />
    <path
       id="path5281"
       d="m 110.78482,82.082738 c 0.53507,0.639773 1.13528,1.018542 1.84743,1.018542 0.71216,0 1.32167,-0.378769 1.85674,-1.018542 -1.23472,0 -2.46945,0 -3.70417,0 z m 0.52917,0.264583 c 0.88194,0 1.76389,0 2.64583,0 -0.3506,0.314265 -0.85643,0.544855 -1.32292,0.544855 -0.46648,10e-7 -0.97231,-0.230591 -1.32291,-0.544855 z"
       style="fill:#F5F6F7;fill-opacity:1;fill-rule:evenodd;stroke:none;stroke-width:0.24932705px;stroke-linecap:butt;stroke-linejoin:miter;stroke-opacity:1" />
    <path
       id="path5279-9"
       d="m 113.69524,85.522321 -0.13285,-0.722882 0.0443,-0.941426 c 0,0 2.36185,2.723414 2.3028,2.504868 -0.059,-0.218545 -0.66285,-1.383492 -1.01854,-2.017344 -0.16853,-0.300309 -0.56094,-0.857371 -0.56094,-0.857371 0,0 0.84872,0.09665 1.25473,0.235357 0.33545,0.114605 1.25473,0.638826 1.25473,0.638826 0,0 -0.69267,-0.858033 -0.98902,-1.244029 -0.14284,-0.186048 -0.51666,-0.739693 -0.51666,-0.739693 0,0 0.72117,0.747446 1.06283,1.143162 0.32234,0.373336 1.04807,1.412141 1.04807,1.412141 -0.85204,-0.406285 -1.70644,-1.02227 -2.59908,-1.108695 0,0 0.82695,1.413355 1.12293,2.117367 0.13929,0.331313 0.39856,1.159972 0.39856,1.159972 -0.91246,-0.768714 -1.71406,-1.684357 -2.58327,-2.538491 z"
       style="fill:#F5F6F7;fill-opacity:1;fill-rule:evenodd;stroke:none;stroke-width:0.24932705px;stroke-linecap:butt;stroke-linejoin:miter;stroke-opacity:1" />
  </g>
</svg>
