<?xml version="1.0" encoding="UTF-8" standalone="no"?>
<svg
   xmlns:osb="http://www.openswatchbook.org/uri/2009/osb"
   xmlns:dc="http://purl.org/dc/elements/1.1/"
   xmlns:cc="http://creativecommons.org/ns#"
   xmlns:rdf="http://www.w3.org/1999/02/22-rdf-syntax-ns#"
   xmlns:svg="http://www.w3.org/2000/svg"
   xmlns="http://www.w3.org/2000/svg"
   id="svg4598"
   version="1.1"
   viewBox="0 0 13.229166 13.229167"
   height="13.229167mm"
   width="13.229166mm">
  <defs
     id="defs4592">
    <linearGradient
       osb:paint="solid"
       id="linearGradient4526">
      <stop
         id="stop4524"
         offset="0"
         style="stop-color:#f5f6f7;stop-opacity:1;" />
    </linearGradient>
  </defs>
  <metadata
     id="metadata4595">
    <rdf:RDF>
      <cc:Work
         rdf:about="">
        <dc:format>image/svg+xml</dc:format>
        <dc:type
           rdf:resource="http://purl.org/dc/dcmitype/StillImage" />
        <dc:title></dc:title>
      </cc:Work>
    </rdf:RDF>
  </metadata>
  <g
     transform="translate(-108.29018,-56.796131)"
     id="layer1">
    <path
       id="path4514"
       d="m 114.28302,58.081542 0.0557,0.72633 0.31685,0.207282 0.039,1.183586 c -0.47052,0.05191 -1.29925,-0.108058 -1.69614,-0.350526 l 0.60093,0.773516 0.54526,0.161782 c 0,0 -0.19656,0.228964 -0.17065,0.415125 0.25209,1.811657 0.51248,5.461237 0.51248,5.461237 l 0.41779,0.99765 v 0.0039 l 5.3e-4,-0.0017 0.001,0.0017 v -0.0039 l 0.41779,-0.99765 c 0,0 0.26039,-3.64958 0.51249,-5.461237 0.0259,-0.186161 -0.17066,-0.415125 -0.17066,-0.415125 l 0.54527,-0.161782 0.60093,-0.773516 c -0.3969,0.242468 -1.22563,0.402438 -1.69614,0.350526 l 0.039,-1.183586 0.31686,-0.207282 0.0557,-0.72633 c -0.2039,0.23212 -0.41114,0.361627 -0.62123,0.369625 -5e-4,-1.8e-5 -10e-4,1.9e-5 -0.002,0 -0.21009,-0.008 -0.41732,-0.137505 -0.62122,-0.369625 z m 0.47086,2.703655 0.15755,5.600815 0.14474,-5.600815 0.41258,0.01853 -0.38917,5.808954 -0.17482,0.502196 -0.17429,-0.502196 -0.38918,-5.808954 z"
       style="fill:#F5F6F7;fill-opacity:1;fill-rule:evenodd;stroke:none;stroke-width:0.21605906px;stroke-linecap:butt;stroke-linejoin:miter;stroke-opacity:1" />
    <path
       id="path4516"
       d="m 118.94156,60.430334 -1.00701,0.782199 0.008,0.388676 0.082,0.11766 -0.31112,0.246954 -0.14346,-0.217253 -0.41298,0.01939 -0.90397,0.753555 -0.0259,0.360031 0.3746,0.577726 0.41985,0.02776 0.92377,-0.700674 0.055,-0.385591 -0.10668,-0.161728 0.32607,-0.239462 0.0909,0.13044 0.50997,0.04098 0.95489,-0.693623 0.0699,-0.441998 -0.45219,-0.597996 z m 0.0396,0.261321 0.29499,0.01146 0.27924,0.373693 -0.0546,0.278066 -0.72617,0.502811 -0.32247,-0.007 -0.2174,-0.333149 0.0157,-0.251185 z m -1.51371,1.333218 0.25094,0.420845 -0.0582,0.251185 -0.69343,0.484303 -0.21862,0.0035 -0.22831,-0.344168 0.0311,-0.244575 0.64696,-0.555691 z"
       style="fill:#F5F6F7;fill-opacity:1;fill-rule:evenodd;stroke:none;stroke-width:0.2163993;stroke-linecap:butt;stroke-linejoin:miter;stroke-miterlimit:4;stroke-dasharray:none;stroke-opacity:1" />
    <path
       id="path4516-4"
       d="m 110.86796,60.430334 1.00701,0.782199 -0.008,0.388676 -0.082,0.11766 0.31113,0.246953 0.14345,-0.217252 0.41299,0.01939 0.90397,0.753555 0.0259,0.360031 -0.3746,0.577726 -0.41986,0.02776 -0.92377,-0.700673 -0.0549,-0.385592 0.10668,-0.161727 -0.32608,-0.239462 -0.0909,0.13044 -0.50997,0.04098 -0.95488,-0.693623 -0.0699,-0.441998 0.45218,-0.597996 z m -0.0396,0.261321 -0.29499,0.01146 -0.27923,0.373693 0.0545,0.278066 0.72616,0.502811 0.32247,-0.007 0.21741,-0.33315 -0.0158,-0.251185 z m 1.51372,1.333218 -0.25095,0.420845 0.0582,0.251185 0.69343,0.484303 0.21862,0.0035 0.22832,-0.344168 -0.0311,-0.244575 -0.64696,-0.555691 z"
       style="fill:#F5F6F7;fill-opacity:1;fill-rule:evenodd;stroke:none;stroke-width:0.2163993;stroke-linecap:butt;stroke-linejoin:miter;stroke-miterlimit:4;stroke-dasharray:none;stroke-opacity:1" />
    <path
       id="path4516-7"
       d="m 118.68567,67.488027 -1.00701,-0.782199 0.008,-0.388677 0.082,-0.11766 -0.31112,-0.246953 -0.14346,0.217253 -0.41298,-0.01939 -0.90397,-0.753555 -0.0259,-0.360032 0.3746,-0.577725 0.41985,-0.02776 0.92377,0.700673 0.055,0.385591 -0.10668,0.161728 0.32607,0.239462 0.0909,-0.13044 0.50997,-0.04098 0.95489,0.693623 0.0699,0.441998 -0.45219,0.597997 z m 0.0396,-0.261321 0.29499,-0.01146 0.27923,-0.373692 -0.0546,-0.278067 -0.72616,-0.50281 -0.32247,0.0071 -0.2174,0.33315 0.0157,0.251186 z m -1.51371,-1.333219 0.25094,-0.420844 -0.0582,-0.251185 -0.69343,-0.484303 -0.21862,-0.0035 -0.22831,0.344167 0.0311,0.244575 0.64696,0.555691 z"
       style="fill:#F5F6F7;fill-opacity:1;fill-rule:evenodd;stroke:none;stroke-width:0.2163993;stroke-linecap:butt;stroke-linejoin:miter;stroke-miterlimit:4;stroke-dasharray:none;stroke-opacity:1" />
    <path
       id="path4516-4-6"
       d="m 111.13254,67.449428 1.00702,-0.782199 -0.008,-0.388677 -0.082,-0.11766 0.31112,-0.246953 0.14345,0.217253 0.41299,-0.01939 0.90397,-0.753555 0.0259,-0.360032 -0.3746,-0.577725 -0.41986,-0.02776 -0.92376,0.700673 -0.055,0.385592 0.10668,0.161728 -0.32607,0.239462 -0.0909,-0.130441 -0.50997,-0.04098 -0.95488,0.693624 -0.0699,0.441997 0.45219,0.597997 z m -0.0396,-0.261321 -0.29499,-0.01146 -0.27923,-0.373692 0.0545,-0.278067 0.72617,-0.50281 0.32247,0.007 0.2174,0.33315 -0.0157,0.251185 z m 1.51372,-1.333219 -0.25094,-0.420844 0.0582,-0.251185 0.69343,-0.484303 0.21861,-0.0035 0.22832,0.344167 -0.0311,0.244575 -0.64696,0.555691 z"
       style="fill:#F5F6F7;fill-opacity:1;fill-rule:evenodd;stroke:none;stroke-width:0.2163993;stroke-linecap:butt;stroke-linejoin:miter;stroke-miterlimit:4;stroke-dasharray:none;stroke-opacity:1" />
  </g>
</svg>
